
<svg version="1.0" xmlns="http://www.w3.org/2000/svg"
 width="904.000000pt" height="767.000000pt" viewBox="0 0 904.000000 767.000000"
 preserveAspectRatio="xMidYMid meet">

<g transform="translate(0.000000,767.000000) scale(0.100000,-0.100000)"
fill="#000000" stroke="none">
<path d="M4254 7226 c-401 -66 -623 -319 -673 -769 -15 -129 -13 -254 5 -482
12 -142 17 -402 21 -1024 l5 -834 -28 7 c-36 9 -215 116 -359 215 -373 257
-724 610 -971 976 -283 419 -495 924 -624 1489 -27 122 -30 145 -20 184 6 25
10 46 8 47 -15 12 -51 25 -71 25 -23 0 -28 -10 -61 -112 -20 -62 -50 -169 -67
-238 -16 -69 -52 -201 -79 -295 -145 -499 -194 -823 -156 -1016 58 -286 228
-592 456 -819 209 -209 372 -292 760 -384 165 -40 394 -79 589 -101 303 -34
776 -43 730 -14 -9 5 18 9 72 9 207 0 435 69 599 180 79 54 180 165 220 243
19 37 38 67 41 67 4 0 9 -22 13 -49 11 -87 47 -204 87 -289 120 -258 318 -410
589 -451 36 -6 484 -15 1005 -21 517 -6 1061 -14 1210 -19 178 -6 272 -6 276
1 13 21 19 248 9 353 -15 151 -34 223 -92 344 -42 88 -62 116 -126 180 -90 88
-186 146 -317 190 -195 65 -406 78 -830 52 -247 -16 -1356 -20 -1630 -6 l-145
7 0 407 c1 223 5 752 10 1176 5 423 7 771 5 774 -12 11 -387 9 -461 -3z
m-2635 -590 c196 -756 525 -1364 1000 -1850 190 -194 370 -347 574 -488 39
-26 67 -48 64 -48 -17 0 -202 92 -303 150 -253 146 -449 295 -644 490 -144
144 -229 247 -339 411 -265 393 -411 847 -411 1274 0 107 9 230 15 223 2 -2
21 -74 44 -162z m-104 -79 c1 -228 21 -371 80 -577 89 -308 258 -632 471 -900
82 -103 321 -343 424 -427 229 -185 482 -336 775 -464 61 -27 102 -49 91 -49
-10 0 -66 7 -125 16 -446 65 -868 242 -1174 493 -120 98 -281 273 -362 395
-219 329 -316 687 -302 1116 8 244 29 356 99 548 11 28 20 52 21 52 1 0 2 -91
2 -203z m-156 -781 c32 -189 63 -301 127 -454 225 -538 711 -944 1364 -1138
132 -39 107 -39 -137 2 -304 50 -569 121 -708 188 -403 197 -784 768 -785
1179 0 114 37 339 97 587 l18 75 6 -185 c4 -102 12 -216 18 -254z"/>
<path d="M5715 3701 c12 -5 -19 -10 -81 -14 -457 -28 -776 -249 -865 -598 -21
-82 -21 -106 -29 -1300 -4 -669 -10 -1222 -14 -1228 -4 -6 -4 -11 1 -12 165
-13 270 -15 363 -8 414 31 657 232 750 620 37 157 44 317 26 585 -26 375 -38
943 -30 1447 4 251 10 457 15 457 25 0 285 -168 446 -288 769 -575 1257 -1379
1490 -2454 38 -177 38 -178 65 -178 25 0 30 9 96 178 139 354 254 760 307
1082 29 177 31 254 10 371 -22 126 -58 229 -135 384 -155 311 -387 559 -651
695 -220 113 -733 222 -1228 260 -155 11 -566 12 -536 1z m531 -51 c526 -42
1040 -155 1255 -278 383 -220 726 -764 729 -1157 1 -188 -134 -759 -262 -1111
l-33 -91 0 191 c-1 215 -16 328 -70 542 -98 382 -315 772 -610 1094 -281 307
-666 575 -1080 750 -66 28 -129 55 -140 60 -28 12 50 12 211 0z m-24 -136
c512 -228 964 -602 1253 -1035 282 -423 433 -921 411 -1354 -9 -152 -29 -284
-39 -245 -3 14 -27 108 -51 210 -143 584 -379 1110 -689 1530 -248 337 -567
644 -916 882 -47 32 -82 58 -78 58 4 0 53 -21 109 -46z"/>
<path d="M1217 3614 c-13 -21 -18 -266 -8 -364 15 -142 35 -218 85 -325 76
-160 177 -259 351 -341 198 -94 418 -120 815 -95 255 16 1672 21 1848 7 l92
-8 0 130 c0 442 -197 787 -518 909 -138 52 -149 52 -1052 62 -831 10 -1127 15
-1446 27 -89 4 -164 2 -167 -2z"/>
</g>
</svg>
